<svg
    xmlns="http://www.w3.org/2000/svg"
    viewBox="0 0 600 600"
    id="vector">
    <path
        id="path"
        d="M 247.8 70.693 C 205.807 70.693 171.765 104.735 171.765 146.727 L 171.765 146.727 L 453.966 146.727 C 495.959 146.727 530 112.686 530 70.693 L 530 70.693 L 247.8 70.693 Z"
        fill="#04ab61"/>
    <path
        id="path_1"
        d="M 171.765 146.727 C 171.765 104.735 205.807 70.693 247.8 70.693 L 247.8 70.693 L 247.8 352.894 C 247.8 394.886 213.758 428.928 171.765 428.928 L 171.765 428.928 L 171.765 146.727 Z"
        fill="#04ab61"/>
    <path
        id="path_2"
        d="M 271.941 172.073 L 271.941 248.107 L 360.634 248.107 C 402.627 248.107 436.668 214.065 436.668 172.073 L 436.668 172.073 L 271.941 172.073 Z"
        fill="#fbb016"
        fill-rule="evenodd"/>
    <path
        id="path_3"
        d="M 69.174 248.107 C 69.174 206.114 103.216 172.073 145.208 172.073 L 145.208 172.073 L 145.208 454.273 C 145.208 496.266 111.166 530.308 69.174 530.308 L 69.174 530.308 L 69.174 248.107 Z"
        fill="#fbb016"/>
</svg>
